<svg style="position: absolute; width: 0; height: 0; overflow: hidden;" version="1.1" xmlns="http://www.w3.org/2000/svg">
    <defs>
        <symbol id="icon-arrow-left" width="10px" height="18px" viewBox="0 0 32 32">
            <path fill="#38a898" d="M7.419 15.262l14.229-14.941c0.203-0.214 0.437-0.321 0.7-0.321 0.265 0 0.5 0.107 0.702 0.321l1.527 1.603c0.204 0.214 0.306 0.459 0.306 0.738s-0.101 0.524-0.306 0.738l-12 12.601 12 12.601c0.204 0.214 0.306 0.46 0.306 0.737s-0.101 0.524-0.306 0.738l-1.527 1.603c-0.203 0.214-0.437 0.321-0.702 0.321-0.263 0-0.498-0.107-0.7-0.321l-14.229-14.941c-0.203-0.213-0.306-0.46-0.306-0.737s0.103-0.524 0.306-0.738z"></path>
        </symbol>
        <symbol id="icon-check" viewBox="0 0 32 32">
            <path fill="#fff" d="M14.76 24.332c-0.88 0.68-2.36 0.68-3.24 0l-7.32-8.608c-0.88-0.68-0.88-1.776 0-2.456s2.36-0.68 3.24 0l5.874 6.905 14.766-14.777c0.76-0.776 2-0.776 2.8 0 0.76 0.768 0.76 2.020 0 2.788l-15.733 15.749c-0.101 0.143-0.23 0.278-0.387 0.399z"></path>
        </symbol>
        <symbol id="icon-delete" viewBox="0 0 32 32">
            <path fill="#e97660" d="M19.52 15.993l10.766-10.793c0.663-0.67 0.663-1.758 0-2.427s-1.76-0.67-2.423 0l-10.766 10.793-10.743-10.793c-0.686-0.67-1.76-0.67-2.423 0-0.686 0.67-0.686 1.758 0 2.427l10.743 10.793-10.743 10.793c-0.686 0.67-0.686 1.758 0 2.427 0.32 0.336 0.777 0.503 1.211 0.503s0.869-0.167 1.211-0.503l10.743-10.793 10.766 10.793c0.343 0.336 0.777 0.503 1.211 0.503s0.869-0.167 1.211-0.503c0.663-0.67 0.663-1.758 0-2.427z"></path>
        </symbol>
        <symbol id="icon-export" viewBox="0 0 32 32">
            <path fill="#38a898" d="M24.846 1.143h-15.703v13.714l-5.371 0.142 2.263-2.297-1.394-1.417-4.64 4.715 4.64 4.713 1.394-1.415-2.263-2.297 5.371 0.142v13.714h22.857v-22.45zM25.417 4.562l3.2 3.257h-3.2zM11.429 28.571v-11.429l9.714-0.142v-2.002l-9.714-0.142v-11.429l12.023-0.283v6.679h6.583v19.029z"></path>
        </symbol>
        <symbol id="icon-import" viewBox="0 0 32 32">
            <path fill="#38a898" d="M7.474 1.143h15.223v13.856h9.303v2.002h-9.303v13.856h-22.697v-22.45zM6.88 4.562l-3.36 3.257h3.36zM20.64 28.853v-11.851h-6.789l2.354 2.297-1.463 1.415-4.846-4.713 4.846-4.715 1.463 1.417-2.354 2.297h6.789v-11.854h-11.703v6.679h-6.88v19.029z"></path>
        </symbol>
        <symbol id="icon-log-out" viewBox="0 0 32 32">
            <path fill="#38a898" d="M26.947 23.579h-3.368l3.368-5.053h-15.158v-3.369h15.158l-3.368-5.052h3.368l5.053 6.737zM18.526 10.105h3.368v-8.421l-21.895 0.002v30.31h22.046l-0.152-8.418h-3.368v5.052h-15.158v-23.579h15.158z"></path>
        </symbol>
        <symbol id="icon-search" viewBox="0 0 32 32">
            <path d="M31.2 27.434l-6.944-6.95c-0.032-0.038-0.064-0.064-0.128-0.099 1.376-2.074 2.176-4.557 2.176-7.229 0-7.264-5.888-13.155-13.152-13.155s-13.152 5.891-13.152 13.155c0 7.267 5.888 13.155 13.152 13.155 2.688 0 5.152-0.797 7.232-2.166 0.032 0.038 0.064 0.083 0.096 0.118l6.944 6.954c1.056 1.043 2.752 1.043 3.776 0 1.056-1.046 1.056-2.739 0-3.782zM13.152 21.75c-4.736 0-8.608-3.85-8.608-8.595s3.872-8.595 8.608-8.595c4.736 0 8.608 3.85 8.608 8.595s-3.872 8.595-8.608 8.595z"></path>
        </symbol>
        <symbol id="icon-settings" viewBox="0 0 32 32">
            <path fill="#aaa" d="M26.329 12.736l-0.729-1.744c0 0 1.671-3.851 1.529-4l-2.204-2.206c-0.16-0.153-3.929 1.605-3.929 1.605l-1.742-0.718c0 0-1.547-3.904-1.76-3.904h-3.129c-0.213 0-1.636 3.915-1.636 3.915l-1.742 0.718c0 0-3.84-1.671-4-1.522l-2.204 2.21c-0.16 0.151 1.6 3.927 1.6 3.927l-0.711 1.74c0 0-3.911 1.536-3.911 1.744v3.125c0 0.219 3.911 1.643 3.911 1.643l0.729 1.737c0 0-1.671 3.849-1.529 3.998l2.204 2.212c0.16 0.149 3.929-1.609 3.929-1.609l1.742 0.722c0 0 1.547 3.9 1.76 3.9h3.129c0.213 0 1.636-3.913 1.636-3.913l1.742-0.72c0 0 3.84 1.673 4 1.525l2.204-2.21c0.16-0.153-1.6-3.925-1.6-3.925l0.711-1.742c0 0 3.911-1.538 3.911-1.748v-3.125c0-0.215-3.911-1.636-3.911-1.636zM20.569 15.998c0 2.514-2.044 4.562-4.569 4.562-2.507 0-4.569-2.048-4.569-4.562 0-2.512 2.062-4.556 4.569-4.556 2.524 0 4.569 2.044 4.569 4.556z"></path>
        </symbol>
        <symbol id="icon-start" viewBox="0 0 32 32">
            <path fill="#fff" d="M1.455 0l29.091 17.455-29.091 14.545z"></path>
        </symbol>
        <symbol id="icon-up" viewBox="0 0 32 32">
            <path fill="#33a292" d="M11.2 32h9.6v-19.2h6.4l-11.2-12.8-11.2 12.8h6.4z"></path>
        </symbol>
    </defs>
</svg>