<svg style="display: none;">
    <symbol id="icon-arrow-left" viewBox="0 0 10 18">
        <path d="M639.173 24.5851L647.177 16.1806C647.291 16.060299999999998 647.423 15.999999999999998 647.571 15.999999999999998C647.72 15.999999999999998 647.852 16.060299999999998 647.966 16.1806L648.825 17.082199999999997C648.94 17.202599999999997 648.9970000000001 17.3406 648.9970000000001 17.497099999999996C648.9970000000001 17.653699999999997 648.94 17.791699999999995 648.825 17.911999999999995L642.075 25.000099999999996L648.825 32.0881C648.94 32.208299999999994 648.9970000000001 32.3467 648.9970000000001 32.5028C648.9970000000001 32.6592 648.94 32.7976 648.825 32.9178L647.966 33.8193C647.852 33.939699999999995 647.72 33.9996 647.571 33.9996C647.423 33.9996 647.291 33.9395 647.177 33.8193L639.173 25.4148C639.059 25.2947 639.001 25.156299999999998 639.001 25.0001C639.001 24.8436 639.059 24.7053 639.173 24.5851Z "
              fill="#38a898" fill-opacity="1"></path>
    </symbol>
    <symbol id="icon-check" viewBox="0 0 8 6">
        <path d="M1126.69 177.083C1126.47 177.253 1126.1000000000001 177.253 1125.88 177.083L1124.0500000000002 174.931C1123.8300000000002 174.76100000000002 1123.8300000000002 174.48700000000002 1124.0500000000002 174.317C1124.2700000000002 174.14700000000002 1124.64 174.14700000000002 1124.8600000000001 174.317L1126.32858 176.04319L1130.0200000000002 172.34900000000002C1130.2100000000003 172.15500000000003 1130.5200000000002 172.15500000000003 1130.7200000000003 172.34900000000002C1130.9100000000003 172.54100000000003 1130.9100000000003 172.854 1130.7200000000003 173.04600000000002L1126.7867100000003 176.98322000000002C1126.7614700000004 177.01902 1126.7292300000004 177.05268 1126.6900000000003 177.08300000000003Z "
              fill="#ffffff" fill-opacity="1"></path>
    </symbol>
    <symbol id="icon-delete" viewBox="0 0 13 14">
        <path d="M1805.04 173.997L1809.75 169.275C1810.04 168.982 1810.04 168.506 1809.75 168.213C1809.46 167.92 1808.98 167.92 1808.69 168.213L1803.98 172.935L1799.28 168.213C1798.98 167.92 1798.51 167.92 1798.22 168.213C1797.92 168.506 1797.92 168.982 1798.22 169.275L1802.92 173.997L1798.22 178.71900000000002C1797.92 179.01200000000003 1797.92 179.48800000000003 1798.22 179.78100000000003C1798.3600000000001 179.92800000000003 1798.56 180.00100000000003 1798.75 180.00100000000003C1798.94 180.00100000000003 1799.13 179.92800000000003 1799.28 179.78100000000003L1803.98 175.05900000000003L1808.69 179.78100000000003C1808.8400000000001 179.92800000000003 1809.03 180.00100000000003 1809.22 180.00100000000003C1809.41 180.00100000000003 1809.6000000000001 179.92800000000003 1809.75 179.78100000000003C1810.04 179.48800000000003 1810.04 179.01200000000003 1809.75 178.71900000000002Z "
              fill="#e97660" fill-opacity="1"></path>
    </symbol>
    <symbol id="icon-export" viewBox="0 0 14 13">
        <path d="M2577.87 224H2571V230L2568.65 230.062L2569.64 229.05700000000002L2569.0299999999997 228.437L2566.9999999999995 230.5L2569.0299999999997 232.562L2569.64 231.943L2568.65 230.93800000000002L2571 231.00000000000003V237.00000000000003H2581V227.17800000000003ZM2578.12 225.496L2579.52 226.92100000000002H2578.12ZM2572 236V231L2576.25 230.938V230.06199999999998L2572 229.99999999999997V224.99999999999997L2577.26 224.87599999999998V227.79799999999997H2580.1400000000003V236.12299999999996Z "
              fill="#38a898" fill-opacity="1"></path>
    </symbol>
    <symbol id="icon-log-out" viewBox="0 0 19 19">
        <path d="M1822 28.9999H1820L1822 25.9999H1813V23.9998H1822L1820 20.9999H1822L1825 24.9998ZM1817 20.9999H1819V15.9999L1806 16.0013V33.998000000000005H1819.09L1819 28.999900000000004H1817V31.999800000000004H1808V17.999900000000004H1817Z "
              fill="#38a898" fill-opacity="1"></path>
    </symbol>
    <symbol id="icon-import" viewBox="0 0 14 13">
        <path d="M2572.27 274H2578.93V280.062H2583V280.938H2578.93V287H2569V277.178ZM2572.01 275.496L2570.5400000000004 276.921H2572.01ZM2578.03 286.123V280.938H2575.0600000000004L2576.0900000000006 281.943L2575.4500000000007 282.562L2573.330000000001 280.5L2575.4500000000007 278.437L2576.0900000000006 279.057L2575.0600000000004 280.062H2578.03V274.87600000000003H2572.9100000000003V277.79800000000006H2569.9V286.12300000000005Z "
              fill="#38a898" fill-opacity="1"></path>
    </symbol>
    <symbol id="icon-search" viewBox="0 0 10 10">
        <path d="M2119.75 186.573L2117.58 184.401C2117.5699999999997 184.389 2117.56 184.381 2117.54 184.37C2117.97 183.722 2118.22 182.946 2118.22 182.11100000000002C2118.22 179.841 2116.3799999999997 178.00000000000003 2114.1099999999997 178.00000000000003C2111.8399999999997 178.00000000000003 2109.9999999999995 179.84100000000004 2109.9999999999995 182.11100000000002C2109.9999999999995 184.382 2111.8399999999997 186.222 2114.1099999999997 186.222C2114.95 186.222 2115.72 185.973 2116.37 185.54500000000002C2116.38 185.55700000000002 2116.39 185.57100000000003 2116.4 185.58200000000002L2118.57 187.75500000000002C2118.9 188.08100000000002 2119.4300000000003 188.08100000000002 2119.75 187.75500000000002C2120.08 187.42800000000003 2120.08 186.89900000000003 2119.75 186.57300000000004ZM2114.11 184.797C2112.63 184.797 2111.42 183.594 2111.42 182.111C2111.42 180.628 2112.63 179.42499999999998 2114.11 179.42499999999998C2115.59 179.42499999999998 2116.8 180.628 2116.8 182.111C2116.8 183.594 2115.59 184.797 2114.11 184.797Z "
              fill="#2b2b2b" fill-opacity="1"></path>
    </symbol>
    <symbol id="icon-settings" viewBox="0 0 18 18">
        <path d="M1775.81 172.164L1775.3999999999999 171.183C1775.3999999999999 171.183 1776.34 169.017 1776.2599999999998 168.933L1775.0199999999998 167.69199999999998C1774.9299999999998 167.60599999999997 1772.8099999999997 168.59499999999997 1772.8099999999997 168.59499999999997L1771.8299999999997 168.19099999999997C1771.8299999999997 168.19099999999997 1770.9599999999998 165.99499999999998 1770.8399999999997 165.99499999999998H1769.0799999999997C1768.9599999999998 165.99499999999998 1768.1599999999996 168.19699999999997 1768.1599999999996 168.19699999999997L1767.1799999999996 168.60099999999997C1767.1799999999996 168.60099999999997 1765.0199999999995 167.66099999999997 1764.9299999999996 167.74499999999998L1763.6899999999996 168.98799999999997C1763.5999999999997 169.07299999999998 1764.5899999999997 171.19699999999997 1764.5899999999997 171.19699999999997L1764.1899999999996 172.176C1764.1899999999996 172.176 1761.9899999999996 173.04 1761.9899999999996 173.15699999999998V174.915C1761.9899999999996 175.03799999999998 1764.1899999999996 175.839 1764.1899999999996 175.839L1764.5999999999997 176.816C1764.5999999999997 176.816 1763.6599999999996 178.981 1763.7399999999998 179.065L1764.9799999999998 180.309C1765.0699999999997 180.393 1767.1899999999998 179.404 1767.1899999999998 179.404L1768.1699999999998 179.81C1768.1699999999998 179.81 1769.0399999999997 182.004 1769.1599999999999 182.004H1770.9199999999998C1771.0399999999997 182.004 1771.84 179.803 1771.84 179.803L1772.82 179.398C1772.82 179.398 1774.98 180.339 1775.07 180.256L1776.31 179.013C1776.3999999999999 178.927 1775.4099999999999 176.805 1775.4099999999999 176.805L1775.81 175.82500000000002C1775.81 175.82500000000002 1778.01 174.96 1778.01 174.842V173.084C1778.01 172.963 1775.81 172.16400000000002 1775.81 172.16400000000002ZM1772.57 173.999C1772.57 175.41299999999998 1771.4199999999998 176.565 1770 176.565C1768.59 176.565 1767.43 175.413 1767.43 173.999C1767.43 172.58599999999998 1768.5900000000001 171.436 1770 171.436C1771.42 171.436 1772.57 172.586 1772.57 173.999Z "
              fill="#aaaaaa" fill-opacity="1"></path>
    </symbol>
    <symbol id="icon-start" viewBox="0 0 10 11">
        <path d="M1996 130L2006 136L1996 141Z " fill="#ffffff" fill-opacity="1"></path>
    </symbol>
    <symbol id="icon-up" viewBox="0 0 7 10">
        <path d="M2454 188H2457V182H2459L2455.5 178L2452 182H2454Z " fill="#33a292" fill-opacity="1"></path>
    </symbol>
</svg>